<svg width="1200" height="800" viewBox="0 0 1200 800" xmlns="http://www.w3.org/2000/svg">
  <defs>
    <linearGradient id="bg" x1="0" x2="1" y1="0" y2="1">
      <stop offset="0%" stop-color="#0f4d92"/>
      <stop offset="100%" stop-color="#17213e"/>
    </linearGradient>
    <linearGradient id="accent" x1="0" x2="1" y1="0" y2="1">
      <stop offset="0%" stop-color="#56ccf2"/>
      <stop offset="100%" stop-color="#2f80ed"/>
    </linearGradient>
  </defs>
  <rect width="1200" height="800" fill="url(#bg)" rx="40"/>
  <rect x="120" y="120" width="460" height="260" rx="30" fill="rgba(255,255,255,0.08)" />
  <rect x="680" y="140" width="360" height="420" rx="30" fill="rgba(255,255,255,0.1)" />
  <path d="M190 220 H520" stroke="url(#accent)" stroke-width="28" stroke-linecap="round"/>
  <path d="M190 280 H420" stroke="rgba(255,255,255,0.45)" stroke-width="18" stroke-linecap="round"/>
  <path d="M190 340 H360" stroke="rgba(255,255,255,0.45)" stroke-width="18" stroke-linecap="round"/>
  <circle cx="250" cy="500" r="90" fill="rgba(255,255,255,0.08)" />
  <circle cx="250" cy="500" r="44" fill="url(#accent)" />
  <path d="M680 420 H980" stroke="rgb(255,255,255)" stroke-width="14" stroke-linecap="round" opacity="0.85"/>
  <path d="M680 480 H950" stroke="rgb(255,255,255)" stroke-width="14" stroke-linecap="round" opacity="0.65"/>
  <path d="M720 540 H900" stroke="rgb(255,255,255)" stroke-width="14" stroke-linecap="round" opacity="0.5"/>
  <rect x="760" y="220" width="140" height="120" rx="24" fill="rgba(255,255,255,0.12)" />
  <rect x="760" y="220" width="140" height="48" rx="16" fill="url(#accent)" />
  <text x="120" y="680" fill="white" font-family="Inter, Arial, sans-serif" font-size="72" font-weight="700">E-Commerce</text>
  <text x="120" y="760" fill="rgba(255,255,255,0.8)" font-family="Inter, Arial, sans-serif" font-size="42">Sales dashboard insights</text>
</svg>
